# xmcd
#
# Track frame offsets:
#	150
#	13503
#	28966
#	58442
#	83635
#	106090
#	118757
#	138504
#	174634
#	196929
#	215016
#	234934
#	247875
#	268494
#	288954
#	306900
#	334369
#
# Disc length: 4686
#
# Revision: 3
# Processed by: cddbd v1.5.1PL0 Copyright (c) Steve Scherf et al.
# Submitted via: CDex 1.51
# Normalized: r0:TDELIM( - ),TSWAP;r2:DSETVAR1
#
DISCID=00124c11
DTITLE=Various Artist - Jazz em Paris 2
DYEAR=2004
DGENRE=Jazz
TTITLE0=do filme Forget Paris - My Melancholy Babay
TTITLE1=Louis Prima - Lazy River
TTITLE2=Ella Fitzgerald e Louis Armstrong - April em Paris
TTITLE3=Oscar Peterson e Stéphane Grappelli - Flamingo
TTITLE4=Oscar Peterson e Stéphane Grappelli - Walkin' my baby back home
TTITLE5=Guy Lafitte - If I Had You
TTITLE6=Guy Lafitte - I've got the world on a string
TTITLE7=Lionel Hampton - Just you, just me
TTITLE8=Lionel Hampton - Regina's drag
TTITLE9=Dizzy Gillespie - Mama's blues
TTITLE10=Dizzy Gillespie - Blue Moon
TTITLE11=Elis Regina - Recif de Cassard
TTITLE12=Bernard Zacarias et ses solites - It ain't necessary só
TTITLE13=Bernard Zacarias et ses solites - Lady be good
TTITLE14=Baby Jaspar Quartet - Autumn in New York
TTITLE15=Dee Dee Bridgewater - Doudlin'
TTITLE16=Count Basie e sua orquestra - April in Paris
EXTD=YEAR: 2004
EXTT0=
EXTT1=
EXTT2=
EXTT3=
EXTT4=
EXTT5=
EXTT6=
EXTT7=
EXTT8=
EXTT9=
EXTT10=
EXTT11=
EXTT12=
EXTT13=
EXTT14=
EXTT15=
EXTT16=
PLAYORDER=
